<svg width="150" height="150" viewBox="0 0 150 150" fill="none" xmlns="http://www.w3.org/2000/svg">
<rect width="150" height="150" fill="#2C5F2D"/>
<path d="M61.022 135.8H17V130.754C21.64 128.898 26.396 127.506 31.268 126.578V23.396C25.816 22.584 21.06 21.134 17 19.046V14H61.022V19.046C59.05 20.09 56.962 20.96 54.758 21.656C52.554 22.352 50.292 22.932 47.972 23.396V68.81H102.608V23.396C100.172 22.816 97.852 22.178 95.648 21.482C93.56 20.786 91.53 19.974 89.558 19.046V14H133.58V19.046C131.492 20.206 129.172 21.134 126.62 21.83C124.184 22.41 121.748 22.932 119.312 23.396V126.578C121.98 127.042 124.532 127.622 126.968 128.318C129.404 129.014 131.608 129.826 133.58 130.754V135.8H89.558V130.754C93.734 128.898 98.084 127.506 102.608 126.578V77.858H47.972V126.578C50.292 127.042 52.554 127.622 54.758 128.318C56.962 129.014 59.05 129.826 61.022 130.754V135.8Z" fill="white"/>
</svg>
