<svg xmlns="http://www.w3.org/2000/svg" width="30" height="30" viewBox="0 0 30 30">
  <path id="instagram-check-mark" d="M32.373,20.091a.165.165,0,0,1,0-.179l1.235-1.929a2.473,2.473,0,0,0-.947-3.535l-2.035-1.052a.169.169,0,0,1-.091-.157l.106-2.29a2.473,2.473,0,0,0-2.587-2.587l-2.291.106a.205.205,0,0,1-.156-.09L24.556,6.341a2.474,2.474,0,0,0-3.535-.948L19.091,6.63h0a.165.165,0,0,1-.179,0L16.982,5.394a2.473,2.473,0,0,0-3.535.947L12.395,8.377a.166.166,0,0,1-.157.091L9.947,8.36A2.473,2.473,0,0,0,7.36,10.947l.106,2.291a.169.169,0,0,1-.09.156L5.34,14.446a2.474,2.474,0,0,0-.948,3.535l1.236,1.931a.165.165,0,0,1,0,.179L4.393,22.02a2.473,2.473,0,0,0,.947,3.535l2.035,1.052a.169.169,0,0,1,.091.157L7.36,29.056a2.483,2.483,0,0,0,.722,1.866,2.442,2.442,0,0,0,1.865.722l2.291-.106a.19.19,0,0,1,.156.09l1.052,2.036a2.475,2.475,0,0,0,3.535.947l1.931-1.236a.163.163,0,0,1,.179,0l1.929,1.235a2.473,2.473,0,0,0,3.535-.947l1.052-2.036a.189.189,0,0,1,.157-.091l2.29.106a2.473,2.473,0,0,0,2.587-2.587l-.106-2.291a.169.169,0,0,1,.09-.156l2.035-1.052a2.474,2.474,0,0,0,.948-3.535Zm-6.743-3a36.411,36.411,0,0,0-7.454,7.458,1.154,1.154,0,0,1-.921.458h0a1.154,1.154,0,0,1-.921-.465,14.8,14.8,0,0,0-3.56-3.574,1.154,1.154,0,0,1,1.279-1.922,15.386,15.386,0,0,1,3.2,2.942,38.008,38.008,0,0,1,7.015-6.758,1.154,1.154,0,1,1,1.365,1.861Z" transform="translate(-4.001 -5.002)"/>
</svg>
